<svg xmlns="http://www.w3.org/2000/svg" viewBox="0 0 320 48" width="320" height="48">
  <defs>
    <style>
      @import url('https://fonts.googleapis.com/css2?family=M+PLUS+Rounded+1c:wght@700&amp;display=swap');
    </style>
    <linearGradient id="cape" x1="0" y1="0" x2="0" y2="1">
      <stop offset="0%" stop-color="#3878B8"/>
      <stop offset="100%" stop-color="#2A5F9E"/>
    </linearGradient>
    <linearGradient id="helmet" x1="0" y1="0" x2="0" y2="1">
      <stop offset="0%" stop-color="#5BA3E6"/>
      <stop offset="100%" stop-color="#3878B8"/>
    </linearGradient>
    <linearGradient id="gold" x1="0.5" y1="0" x2="0.5" y2="1">
      <stop offset="0%" stop-color="#FFE44D"/>
      <stop offset="100%" stop-color="#FFCC00"/>
    </linearGradient>
    <linearGradient id="skin" x1="0.5" y1="0" x2="0.5" y2="1">
      <stop offset="0%" stop-color="#FFE0B2"/>
      <stop offset="100%" stop-color="#FFCC80"/>
    </linearGradient>
  </defs>
  <!-- Hero character (scaled to ~44x44) -->
  <g transform="translate(2,1) scale(0.18)">
    <!-- Cape -->
    <path d="M96,130 Q78,165 82,200 Q88,195 100,188 L128,175 L156,188 Q168,195 174,200 Q178,165 160,130Z" fill="url(#cape)" opacity="0.85"/>
    <!-- Body -->
    <path d="M104,120 Q100,140 102,165 L128,172 L154,165 Q156,140 152,120Z" fill="#F5E6C8"/>
    <!-- Star emblem -->
    <polygon points="128,132 132,124 140,123 135,118 136,110 128,114 120,110 121,118 116,123 124,124" fill="url(#gold)"/>
    <!-- Arms -->
    <path d="M104,125 Q88,115 82,98" fill="none" stroke="url(#skin)" stroke-width="12" stroke-linecap="round"/>
    <path d="M152,125 Q168,110 172,95" fill="none" stroke="url(#skin)" stroke-width="12" stroke-linecap="round"/>
    <circle cx="80" cy="96" r="8" fill="url(#skin)"/>
    <circle cx="173" cy="93" r="8" fill="url(#skin)"/>
    <!-- Wand -->
    <line x1="173" y1="93" x2="185" y2="52" stroke="#8D6E63" stroke-width="5" stroke-linecap="round"/>
    <polygon points="185,42 189,32 198,30 191,24 193,14 185,19 177,14 179,24 172,30 181,32" fill="url(#gold)"/>
    <!-- Head -->
    <circle cx="128" cy="82" r="28" fill="url(#skin)"/>
    <!-- Helmet -->
    <path d="M100,78 Q100,50 128,45 Q156,50 156,78 Q148,72 128,70 Q108,72 100,78Z" fill="url(#helmet)"/>
    <rect x="100" y="74" width="56" height="6" rx="3" fill="url(#gold)"/>
    <polygon points="128,52 131,44 138,43 133,39 134,32 128,36 122,32 123,39 118,43 125,44" fill="url(#gold)"/>
    <!-- Face -->
    <ellipse cx="118" cy="85" rx="5" ry="5.5" fill="#333"/>
    <ellipse cx="138" cy="85" rx="5" ry="5.5" fill="#333"/>
    <circle cx="116" cy="83" r="2.2" fill="white"/>
    <circle cx="136" cy="83" r="2.2" fill="white"/>
    <path d="M120,96 Q128,104 136,96" fill="none" stroke="#333" stroke-width="3" stroke-linecap="round"/>
  </g>
  <!-- Wordmark -->
  <text x="50" y="33" font-family="'M PLUS Rounded 1c', 'Rounded Mplus 1c', 'Hiragino Maru Gothic Pro', 'BIZ UDPGothic', sans-serif"
        font-size="23" font-weight="700" fill="#2D2D2D" letter-spacing="1">
    がんばりクエスト
  </text>
</svg>